<svg id="Group_97" data-name="Group 97" xmlns="http://www.w3.org/2000/svg" xmlns:xlink="http://www.w3.org/1999/xlink" width="452.66" height="399.594" viewBox="0 0 452.66 399.594">
  <defs>
    <clipPath id="clip-path">
      <rect id="Rectangle_6" data-name="Rectangle 6" width="452.66" height="399.594" fill="none"/>
    </clipPath>
  </defs>
  <g id="Group_4" data-name="Group 4" clip-path="url(#clip-path)">
    <path id="Path_1" data-name="Path 1" d="M482.51,396.244c1.647.072,3.294.207,4.942.207q37.757.019,75.514.016c7.5.006,14.766,1.212,21.521,4.7,20.135,10.4,15.73,32.8,1.917,41.529-.859.543-1.716,1.091-2.751,1.749l14.515,24.378c-.878.063-1.407.133-1.937.134-9.548.006-19.1-.021-28.643.026a3.426,3.426,0,0,1-3.407-1.878c-3.56-6.046-7.3-11.988-10.887-18.018a3.121,3.121,0,0,0-3.172-1.837c-3.209.136-6.427.041-9.9.041v21.665H515.733c.714,1.549,1.236,2.732,1.8,3.895,1.718,3.548,3.255,7.2,5.227,10.6,2.6,4.486,2.789,9.285,2.519,14.2-.14,2.547-1.147,2.985-3.38,1.591a25.87,25.87,0,0,1-9.82-11.231c-2.723-5.777-5.608-11.477-8.335-17.252a2.727,2.727,0,0,0-2.9-1.771c-11.757.057-23.514,0-35.271.067-1.787.01-2.913-.367-3.6-2.191a41.022,41.022,0,0,0-3-6.156,2.968,2.968,0,0,0-2.1-1.318q-8.637-.157-17.278.007a2.9,2.9,0,0,0-2.042,1.347c-1.212,2.206-2.117,4.582-3.328,6.789a2.946,2.946,0,0,1-2.041,1.427c-11.125.086-22.25.058-33.376.045a6.738,6.738,0,0,1-1.09-.218c1.909-4.891,3.754-9.638,5.613-14.381,7.277-18.565,14.589-37.117,21.791-55.711.7-1.8,1.575-2.3,3.434-2.284,12.782.086,25.565.045,38.348.045h3.023c-.595-1.246-1.078-2.187-1.5-3.156-.574-1.324-1.45-1.649-2.85-1.235-3.539,1.046-5.233.4-6.777-2.784-6.541-13.472-13.008-26.979-19.526-40.463-.654-1.353-.39-2.147,1-2.8,6.917-3.252,13.8-6.569,20.949-9.981.825,1.662,1.634,3.245,2.4,4.848q8.7,18.121,17.384,36.249c2.051,4.279,1.777,5.255-1.8,8.493a2.878,2.878,0,0,0-.584,2.582c1.153,2.755,2.586,5.392,3.916,8.073H470.518c4.34,9.675,8.408,18.718,12.454,27.772,6.361,14.234,12.693,28.482,19.1,42.7.353.782,1.253,1.82,1.948,1.859,3.443.192,6.9.087,10.585.087-.275-.786-.434-1.375-.681-1.925q-13.3-29.635-26.606-59.268c-1.668-3.725-3.21-7.506-4.81-11.261m57.936,29.092c6.193,0,12.3.137,18.4-.073a3.719,3.719,0,0,0,3.433-4.092c-.353-2.284-2.153-2.772-4.028-2.823-4.791-.13-9.585-.138-14.378-.189-1.138-.012-2.276,0-3.427,0Zm-92.116-.892L442.4,439.763h11.976l-6.051-15.319" transform="translate(-209.222 -176.772)" fill="#04ba56"/>
    <path id="Path_2" data-name="Path 2" d="M98.162,543.416v19.043H93.039c-.125,1.365-.179,2.527-.343,3.673-1.1,7.677-5.226,13.177-12.01,16.829a43.614,43.614,0,0,1-20.82,5.529c-10.1.018-20.2.039-30.29-.265A37,37,0,0,1,8.74,580.678,21.644,21.644,0,0,1,.766,557.532C2,552.975,3.9,550.757,10.335,546.447a34.28,34.28,0,0,1-2.257-3.681c-2.184-4.772-.655-9.17,1.868-13.22,4.988-8.009,12.765-12.03,21.633-14.03A55.262,55.262,0,0,1,43.3,514.271c19.569-.126,39.139-.052,58.709-.116a3.261,3.261,0,0,0,2.472-1.088c.311-.526-.176-1.84-.713-2.448-.394-.447-1.441-.424-2.2-.427-7.575-.028-15.152.075-22.726-.05-5.618-.093-10.966-1.35-15.5-4.924-10.718-8.439-10.417-26.6.562-35.84a25.113,25.113,0,0,1,16.777-6c17.2.035,34.4,0,51.607.018q37.4.044,74.8.132c.767,0,1.534.069,2.624.122-.94,2.191-1.772,4.126-2.6,6.063-1.956,4.565-3.96,9.109-5.838,13.706a2.572,2.572,0,0,1-2.833,1.826c-5.6-.082-11.2-.036-16.807-.037h-2.822v50.683H147.077V485.368c-.965-.066-1.652-.153-2.338-.154q-27.106-.01-54.212.034a3.767,3.767,0,0,0-2.683.9c-1.247,1.63-.114,3.259,2.24,3.274,6.943.047,13.9-.176,20.829.106a35.467,35.467,0,0,1,10.391,1.852c8.927,3.2,14.884,12.406,14.727,21.977-.149,9.039-6.718,18.6-15.025,21.407a24.509,24.509,0,0,1-7.65,1.186c-23.278.079-46.557.031-69.836.033a12.619,12.619,0,0,0-2.819.218c-1.594.368-3.05,1.032-3.185,2.982a3.468,3.468,0,0,0,2.445,3.655,9.874,9.874,0,0,0,3.435.557q26.04.05,52.081.023h2.685M46.255,568.88a51.075,51.075,0,0,0,5.794-.421,3.641,3.641,0,0,0,3.244-4,3.692,3.692,0,0,0-3.743-3.578,81.616,81.616,0,0,0-10.13-.008,3.725,3.725,0,0,0-3.794,3.523,3.538,3.538,0,0,0,3.185,4.005,48.349,48.349,0,0,0,5.444.481" transform="translate(0 -243.757)" fill="#04ba56"/>
    <path id="Path_3" data-name="Path 3" d="M515.65,103.337c.438,7.607.535,15.186,1.369,22.682a260.107,260.107,0,0,0,20.644,75.951,7.764,7.764,0,0,1,.761,3.388,3.276,3.276,0,0,1-3.034,3.146,3.5,3.5,0,0,1-4.127-2.38c-3.989-10.618-8.483-21.079-11.867-31.887-6.792-21.689-10.958-43.9-11.089-66.738-.007-1.259.025-2.518.032-3.776,0-.073-.056-.146-.135-.337-3.6-.348-7.316-.4-10.908-1.1C472.719,97.47,453.736,84.606,441.227,62.7c-4.965-8.693-9.554-17.6-14.539-26.281C419.612,24.1,409.638,15,396.115,10.177a33.933,33.933,0,0,0-8.492-1.851c-5.334-.443-9.347,2.1-11.839,6.7-3.2,5.912-3.606,12.459-3.9,19.144a12.556,12.556,0,0,0,1.473.3c7.221.553,12.533,4.069,15.739,10.512,4.074,8.188,7.956,16.47,11.916,24.714s7.86,16.514,11.906,24.714c1.011,2.049.74,3.088-1.455,3.886A39.513,39.513,0,0,0,405.948,101a5.486,5.486,0,0,0-2.5,7.074c1.2,2.55,3.9,3.565,6.8,2.4,2.772-1.119,5.481-2.4,8.5-3.729,2.149,4.526,4.329,9.043,6.391,13.613.151.334-.419,1.33-.88,1.554-9.222,4.478-18.485,8.872-27.719,13.325-1.739.838-2.28-.354-2.831-1.5-2.729-5.685-5.407-11.395-8.136-17.08q-8.6-17.911-17.231-35.807c-1.238-2.57-1.168-2.8,1.48-4.106,1.486-.73,3.008-1.387,4.488-2.127,3.155-1.577,4.472-4.753,3.107-7.41-1.412-2.749-4.607-3.654-7.735-2.2-1.716.8-3.476,1.51-5.145,2.4-1.483.787-2.376.685-3.063-1.04-1.739-4.365-4.663-8.275-4.926-13.2-.308-5.76,1.317-10.679,5.788-14.59a5.08,5.08,0,0,0,1.2-3.324c.374-8.234,1.242-16.26,5.113-23.823C373.693,1.578,382.988-1.447,392.3.611c18.963,4.194,32.533,15.64,41.988,32.292C440,42.981,445.438,53.229,451.389,63.168c8.386,14.005,20.9,23.044,36.256,28.018,5.955,1.929,12.268,2.757,18.423,4.067,2.252.479,3.233-.25,3.652-2.758,2.5-14.947,8.4-28.261,19.934-38.5,8.1-7.188,17.527-11.785,28.44-12.776,8.234-.748,15.882,1,22.4,6.357,7.054,5.8,8.46,14.241,3.682,22.044a42.1,42.1,0,0,1-15.715,14.764c-13.227,7.374-26.583,14.563-41.711,17.4-3.4.638-6.852.968-11.1,1.553m1.441-8.609c1.678-.178,2.934-.253,4.17-.452,16.7-2.68,31.85-9.423,46.015-18.344a40.04,40.04,0,0,0,9.888-9.682c3.924-5.126,2.668-10.171-2.719-13.74-5.942-3.936-12.474-4.766-19.292-3.2C539.278,52.962,528.6,62.848,521.99,77.44a60.5,60.5,0,0,0-4.9,17.288" transform="translate(-187.542 0)" fill="#04ba56"/>
    <path id="Path_4" data-name="Path 4" d="M460.165,700.582h-68.88v-72.3h68.554V649.9h-2.557c-5.6,0-11.214.225-16.8-.063a160.549,160.549,0,0,1-16.4-1.722c-4.628-.72-8.669,1.148-12.853,2.333-.55.156-.694,2.326-.695,3.564a2.156,2.156,0,0,0,1.341,1.511c5.408,1.431,10.734,2.726,16.454.843,3.138-1.033,6.679-1.057,10.047-1.131,7.163-.156,14.332-.048,21.677-.048v18.758h-2.6q-19.763.016-39.525.027c-2.651,0-5.141.408-7.363,2.442a8.82,8.82,0,0,0,6.671,2.533q20.118-.058,40.236-.068c.851,0,1.7,0,2.7,0Z" transform="translate(-205.833 -330.501)" fill="#04ba56"/>
    <path id="Path_5" data-name="Path 5" d="M286.056,627.915v21.791h-2.708c-9,0-17.993-.02-26.989.02a45.913,45.913,0,0,0-5.417.388c-9.4,1.164-13.034,7.254-11.134,16.859,1.482,7.489,7.13,11.7,14.76,11.7,10.413.009,20.826,0,31.442,0V700.3a10.247,10.247,0,0,1-1.38.188c-14.126,0-28.252.015-42.378-.037a41.812,41.812,0,0,1-18.931-4.532c-15.8-7.99-22.821-24.456-17.713-41.456,4.951-16.478,18.319-26.491,35.54-26.541,14.2-.041,28.41-.008,42.615-.008h2.292" transform="translate(-107.293 -330.304)" fill="#04ba56"/>
    <path id="Path_6" data-name="Path 6" d="M697.148,700.416V628.137h31.34v50.6h34.519v21.679Z" transform="translate(-366.73 -330.428)" fill="#04ba56"/>
    <path id="Path_7" data-name="Path 7" d="M582.182,678.808h34.435v21.7h-65.76V628.219h31.325Z" transform="translate(-289.775 -330.471)" fill="#04ba56"/>
    <path id="Path_8" data-name="Path 8" d="M844.987,486.014V536.7H813.352V486.34l-2.566-.394c-3.221-11.687-11.238-18.326-22.707-21.463h79.145v21.531Z" transform="translate(-414.564 -244.339)" fill="#04ba56"/>
    <path id="Path_9" data-name="Path 9" d="M485.2,281.107a7.326,7.326,0,0,1-4.308,6.681q-19.576,9.476-39.176,18.9c-2.79,1.335-5.654,1.44-8.272-.56a7.457,7.457,0,0,1-2.916-7.523,5.672,5.672,0,0,1,3.284-4.584q15.382-7.545,30.751-15.122c3.325-1.631,6.626-3.326,10.032-4.772a7.437,7.437,0,0,1,10.607,6.98m-7.394,1.786c.07-1.943-1.243-3.674-2.911-3.586-1.7.089-3.351.487-3.546,2.652a3.31,3.31,0,0,0,2.747,3.733c1.944.121,3.65-1.167,3.709-2.8m-33.521,15.528a3.639,3.639,0,0,0-3.53-3.163,3.522,3.522,0,0,0-2.931,3.473,3.629,3.629,0,0,0,3.424,3.024,3.372,3.372,0,0,0,3.036-3.333m16.748-7.2a3.621,3.621,0,0,0-3.3-3.921,3.1,3.1,0,0,0-3.191,3.082,3.282,3.282,0,0,0,3.3,3.3c1.764-.048,2.991-.85,3.19-2.461" transform="translate(-226.419 -143.847)" fill="#04ba56"/>
    <path id="Path_10" data-name="Path 10" d="M530.457,802.928a36.436,36.436,0,0,0,1.181,4.693,5.205,5.205,0,0,0,5.009,3.333,5.558,5.558,0,0,0,5.512-2.948,7.732,7.732,0,0,0,.49-1.076c.5-1.328,1.117-2.624,2.862-2.028,1.785.609,1.829,2.166,1.2,3.525a11.917,11.917,0,0,1-2.7,4.051c-5.261,4.537-14.159,2.474-17.007-3.847a14.608,14.608,0,0,1-.234-11.74c2.7-6.795,11.827-9.113,17.4-4.375a9.649,9.649,0,0,1,2.607,4.075c.238.68-.553,2.117-1.281,2.59-.446.29-1.7-.52-2.5-.987-.355-.206-.491-.787-.731-1.194a5.577,5.577,0,0,0-5.914-3.017,5.731,5.731,0,0,0-5.021,4.394,44.189,44.189,0,0,0-.864,4.552" transform="translate(-276.515 -415.586)" fill="#04ba56"/>
    <path id="Path_11" data-name="Path 11" d="M434.942,798.994c0-2.069.008-4,0-5.937-.008-1.486.386-2.837,2.1-2.839s2.1,1.381,2.1,2.846q.009,9.464.007,18.928c0,1.361-.31,2.8-1.859,2.768-.941-.021-1.86-1.066-2.789-1.651l.33-.56c-.138.013-.325-.028-.407.046-2.348,2.129-5.011,3.041-8.036,1.739-3.2-1.381-4.324-4.239-4.614-7.442-.628-6.929,3.619-11.329,9.4-9.756a22.615,22.615,0,0,1,3.76,1.857m-.147,7.047a26.631,26.631,0,0,0-.639-2.932,3.844,3.844,0,0,0-4.065-2.928,3.588,3.588,0,0,0-3.5,3.281,12.453,12.453,0,0,0,.462,5.677,4.5,4.5,0,0,0,3.449,2.109c1.109.04,2.511-1.051,3.326-2.027.678-.812.69-2.18.964-3.18" transform="translate(-221.841 -415.689)" fill="#04ba56"/>
    <path id="Path_12" data-name="Path 12" d="M264.055,809.936c-.737-.955-1.3-2.417-2.065-2.526a15.766,15.766,0,0,0-4.714.557c-.245.042-.46.417-.635.675-.869,1.275-1.881,2.865-3.461,1.236-1.407-1.451-.257-2.959.945-4.066,2.472-2.276,9.286-2.735,11.794-.539a7.064,7.064,0,0,1,2,4.041c.512,3.478.691,7.011.857,10.529a2.4,2.4,0,0,1-1.027,1.873,2.7,2.7,0,0,1-2.148-.194,5.514,5.514,0,0,1-1.4-1.426,40.426,40.426,0,0,1-6.2,1.89,5.206,5.206,0,0,1-6.143-4.206c-.4-2.763,1.215-4.8,4.506-5.621,2.212-.55,4.44-1.042,6.658-1.571a7.335,7.335,0,0,0,1.028-.652m-.576,3.359a29.407,29.407,0,0,0-5.167,1.328c-.856.386-1.33,1.621-1.976,2.473.935.669,1.826,1.827,2.813,1.916,3.065.276,4.667-1.9,4.33-5.717" transform="translate(-132.46 -422.858)" fill="#04ba56"/>
    <path id="Path_13" data-name="Path 13" d="M711.973,820.11a41.9,41.9,0,0,1-6.319,1.878,5.173,5.173,0,0,1-6.1-4.247c-.376-2.707,1.327-4.815,4.566-5.585,2.356-.559,4.724-1.066,7.725-1.738-.806-1.275-1.258-2.814-1.968-2.943a15.181,15.181,0,0,0-4.736.371c-.311.045-.61.488-.826.807-.876,1.295-1.931,2.846-3.459,1.187-1.314-1.428-.222-2.968,1.011-4.074,2.422-2.172,9.1-2.677,11.609-.6a6.83,6.83,0,0,1,2.11,3.971,107.122,107.122,0,0,1,.872,10.762,2.35,2.35,0,0,1-1.057,1.832,2.684,2.684,0,0,1-2.126-.253,5.077,5.077,0,0,1-1.3-1.364m-.8-6.806a34.114,34.114,0,0,0-5.382,1.387,3.046,3.046,0,0,0-1.625,2.368A3.207,3.207,0,0,0,706.369,819c3.167.609,5.159-1.744,4.8-5.693" transform="translate(-367.969 -422.858)" fill="#04ba56"/>
    <path id="Path_14" data-name="Path 14" d="M336.538,814.155c-.187,2.279.617,4,2.358,4.492,1.415.4,3.137-.119,4.687-.414.544-.1.927-.9,1.486-1.116a21.9,21.9,0,0,1,2.88-.71c-.178,1.054-.005,2.392-.591,3.115-3.468,4.284-12.24,3.159-14.568-1.871-1.706-3.686-1.581-7.467.978-10.727,2.272-2.895,5.552-3.463,9.013-2.669a7.235,7.235,0,0,1,5.817,6.122c.474,2.464-.366,3.648-2.893,3.751-2.983.122-5.975.028-9.166.028m7.683-2.724c-.438-3.182-1.757-4.481-4.153-4.32-2.1.142-3.306,1.612-3.454,4.32Z" transform="translate(-174.464 -422.901)" fill="#04ba56"/>
    <path id="Path_15" data-name="Path 15" d="M470.21,814.939c.993,1.277,1.756,2.908,3.038,3.742,1.617,1.054,3.5.5,5.045-.742.245-.2.484-.4.721-.613.939-.825,2.083-2.128,3.121-.786.448.579-.152,2.639-.91,3.357-2.719,2.577-6.126,2.671-9.538,1.688-3.2-.923-4.882-3.269-5.448-6.5-1.31-7.468,4.1-12.74,11.131-10.78a7.253,7.253,0,0,1,5.467,5.922c.525,2.616-.311,3.744-2.988,3.884-2.439.128-4.89.033-7.335.052-.544,0-1.086.073-1.63.111l-.674.661m.582-3.5c.694.034,1.378.09,2.063.1,1.861.013,3.721,0,5.6,0-.283-3.082-1.406-4.368-3.682-4.436-2.3-.068-3.65,1.357-3.983,4.336" transform="translate(-245.159 -422.885)" fill="#04ba56"/>
    <path id="Path_16" data-name="Path 16" d="M775.3,814.188c-.43,3.971,3.363,6.242,6.778,4.221a8.506,8.506,0,0,0,1.5-1.149c.952-.9,2.128-2,3.11-.594.408.582-.239,2.453-.965,3.179-2.6,2.6-5.953,2.712-9.284,1.872-3.189-.8-5.036-3.036-5.721-6.267-1.575-7.426,3.891-13,10.981-11.147a7.213,7.213,0,0,1,5.379,5.139c1,3.271.034,4.663-3.365,4.735-2.814.059-5.631.012-8.408.012m7.581-2.754c-.36-3.1-1.541-4.348-3.861-4.313-2.252.034-3.516,1.457-3.728,4.313Z" transform="translate(-405.287 -422.909)" fill="#04ba56"/>
    <path id="Path_17" data-name="Path 17" d="M582,814.171c.075,2.363.819,4.269,2.745,4.591,1.585.265,3.363-.592,5.048-.984.2-.047.371-.285.544-.446.929-.864,2.04-2.091,3.186-.82,1.278,1.418-.074,2.637-1.106,3.572-3.324,3.013-10.039,2.607-12.947-.718-3.172-3.627-2.715-10.586.891-13.552,4.4-3.62,11.613-1.866,13.45,3.271,1.238,3.461.231,5.007-3.384,5.075-2.747.052-5.5.01-8.426.01m7.7-2.752c-.112-2.914-1.477-4.394-3.888-4.332-2.26.058-3.472,1.5-3.57,4.332Z" transform="translate(-303.713 -422.888)" fill="#04ba56"/>
    <path id="Path_18" data-name="Path 18" d="M650.561,820.017a8.957,8.957,0,0,1-1.219.958,6.849,6.849,0,0,1-6.767.448c-2.213-1.031-2.824-3.077-2.87-5.3-.062-3.071-.012-6.145-.012-9.217,0-1.476.387-2.8,2.1-2.858,1.862-.064,2.328,1.315,2.358,2.88.051,2.677.034,5.356.116,8.032.056,1.854.512,3.514,2.811,3.652a3.765,3.765,0,0,0,3.879-3.653c.159-2.2.079-4.408.111-6.614.01-.708-.192-1.549.118-2.093A13.342,13.342,0,0,1,653.2,804c.767.736,2.04,1.376,2.2,2.225a33.519,33.519,0,0,1,.182,5.885c.014,2.284.007,4.569,0,6.854,0,1.4-.141,2.994-1.868,2.986-.931,0-1.857-1.1-3.156-1.937" transform="translate(-336.497 -422.941)" fill="#04ba56"/>
    <path id="Path_19" data-name="Path 19" d="M217.007,795.023c-1.854,0-3.415.013-4.976,0-1.35-.014-2.69-.279-2.7-1.94-.009-1.6,1.217-2.047,2.623-2.048,4.962,0,9.924-.009,14.886.007,1.353,0,2.644.3,2.654,1.981s-1.3,1.972-2.638,2c-1.563.037-3.128.009-5.015.009,0,3.357,0,6.559,0,9.76q0,3.426,0,6.852c0,1.731-.1,3.593-2.365,3.626-2.231.033-2.475-1.72-2.465-3.521.025-4.647,0-9.293,0-13.94,0-.847,0-1.693,0-2.785" transform="translate(-110.118 -416.115)" fill="#04ba56"/>
    <path id="Path_20" data-name="Path 20" d="M819.631,822.73c-2.627-.433-5.025-.862-6.7-2.942-.878-1.088-1.481-2.488-.091-3.544,1.339-1.017,2.267-.085,3.027,1.115a4.29,4.29,0,0,0,5.335,1.867,2.631,2.631,0,0,0,1.634-1.691,2.537,2.537,0,0,0-1.327-1.921,46.5,46.5,0,0,0-4.7-1.514c-3.343-1.108-4.8-2.8-4.524-5.2a5.3,5.3,0,0,1,5.535-4.531A20.155,20.155,0,0,1,824.971,806a2.083,2.083,0,0,1,.88,3.495c-1.226,1.25-2.284.23-3.456-.608a10.571,10.571,0,0,0-4.1-1.625c-.5-.1-1.624.894-1.708,1.493-.073.529.787,1.5,1.441,1.762,2.25.907,4.727,1.323,6.866,2.419a4.483,4.483,0,0,1,.216,7.923c-1.623.965-3.639,1.268-5.478,1.87" transform="translate(-427.154 -423.136)" fill="#04ba56"/>
    <path id="Path_21" data-name="Path 21" d="M625.326,802.726c0,2.992,0,5.983,0,8.975,0,1.6-.237,3.18-2.289,3.144-1.85-.032-2.211-1.476-2.212-3.016q-.007-9.329,0-18.659c0-1.568.452-2.939,2.3-2.93,1.722.008,2.176,1.36,2.2,2.8.043,3.227.014,6.455.011,9.683" transform="translate(-326.577 -415.701)" fill="#04ba56"/>
    <path id="Path_22" data-name="Path 22" d="M748.245,805.544c1.83-1.85,3.78-2.324,5.853-.813.642.467.769,1.64,1.132,2.49-.794.31-1.633.967-2.373.871-3.666-.477-4.491-.041-4.946,3.684a70.659,70.659,0,0,0-.246,7.315c-.028,1.575-.389,2.953-2.279,2.913-1.732-.037-2.129-1.334-2.128-2.824,0-4.022-.115-8.048.062-12.061a3.965,3.965,0,0,1,1.6-2.964c.62-.315,1.949.765,3.325,1.389" transform="translate(-390.968 -422.851)" fill="#04ba56"/>
    <path id="Path_23" data-name="Path 23" d="M380.371,805.574c1.91-1.879,3.822-2.343,5.878-.84.649.474.8,1.635,1.174,2.481-.792.316-1.631.987-2.366.888-3.655-.491-4.544-.019-4.976,3.646a70.877,70.877,0,0,0-.22,7.324c-.021,1.583-.4,2.935-2.276,2.932-1.774,0-2.139-1.32-2.142-2.794-.009-4.1-.127-8.211.067-12.3a3.976,3.976,0,0,1,1.8-2.818c.509-.281,1.783.823,3.064,1.486" transform="translate(-197.477 -422.854)" fill="#04ba56"/>
    <path id="Path_24" data-name="Path 24" d="M300.082,802.656q0,4.6,0,9.208c0,1.544-.3,2.974-2.2,2.978s-2.205-1.41-2.2-2.967q.009-9.326-.007-18.652c0-1.554.329-2.991,2.2-2.988,1.843,0,2.234,1.408,2.229,2.977-.01,3.148,0,6.3,0,9.444Z" transform="translate(-155.535 -415.698)" fill="#04ba56"/>
    <path id="Path_25" data-name="Path 25" d="M686.852,802.825c0,2.991-.009,5.982,0,8.973.006,1.535-.232,2.984-2.139,3.032-1.892.048-2.275-1.329-2.274-2.9q0-9.327-.008-18.654c0-1.534.264-3.029,2.138-3.047,1.994-.018,2.3,1.515,2.293,3.152-.016,3.148,0,6.3,0,9.444Z" transform="translate(-358.99 -415.695)" fill="#04ba56"/>
    <path id="Path_26" data-name="Path 26" d="M319.173,802.558q0,4.722,0,9.445c0,1.479-.357,2.776-2.108,2.823-1.9.05-2.292-1.3-2.292-2.879q0-9.444,0-18.889c0-1.48.387-2.806,2.107-2.84,1.835-.037,2.308,1.3,2.3,2.9-.01,3.148,0,6.3-.005,9.444" transform="translate(-165.582 -415.689)" fill="#04ba56"/>
  </g>
</svg>
